<svg width="113" height="32" viewBox="0 0 113 32" fill="none" xmlns="http://www.w3.org/2000/svg">
<path fill-rule="evenodd" clip-rule="evenodd" d="M104.619 27.2579C108.41 25.8831 109.641 23.8135 110.51 22.3539L110.555 22.2773C112.398 19.1714 112.45 15.6817 112.294 14.6664V14.6184C112.198 13.763 111.958 12.9236 111.771 12.9156C111.004 12.8655 109.952 18.1682 109.312 21.3981L109.312 21.3983L109.24 21.7576C109.23 21.8114 109.22 21.865 109.21 21.9186C109.161 22.188 109.112 22.4569 108.952 22.7369C108.801 23.0128 108.725 23.1167 108.625 23.2286C108.509 23.3565 108.333 23.4764 108.377 23.2366C109.828 15.5418 110.759 11.4126 111.603 9.75375C111.699 9.56987 111.795 9.46194 111.894 9.41797C111.739 9.05822 111.559 8.69446 111.363 8.3427C106.818 0.10828 94.7301 -1.93833 87.9746 1.79514C85.0446 3.42203 85.3045 11.1248 89.2298 18.9515C88.8581 16.761 89.3617 14.8103 90.457 12.5558C91.928 9.50991 96.6128 5.10489 100.138 6.46397C103.152 7.61919 101.993 12.356 101.993 12.356C101.993 12.356 104.08 9.56188 105.751 9.47793C106.63 9.42996 108.137 10.0775 106.33 13.0275C104.204 16.4892 100.666 18.0401 99.4229 17.3166C98.472 16.7663 98.3315 15.7546 98.2661 15.284L98.2661 15.2838C98.2564 15.2144 98.2484 15.1567 98.2397 15.1141C98.236 15.0974 98.2321 15.0786 98.2278 15.0581C98.1472 14.676 97.9363 13.675 96.9766 13.5991C95.9612 13.5192 94.1305 14.9302 94.3623 15.5578C94.4691 15.8564 94.917 15.8627 95.4026 15.8694C95.8077 15.8751 96.2391 15.8811 96.5209 16.0575C97.1484 16.4492 97.3803 17.0328 97.1524 18.0561C96.4929 21.1101 93.9506 22.9448 92.1758 22.5171C91.7561 22.4132 91.3404 22.2493 90.9686 22.0254C91.5202 22.9008 92.0879 23.7323 92.6755 24.5117L93.2031 23.6084C93.2191 23.5804 93.2471 23.5604 93.2791 23.5684C94.3184 23.6084 95.5575 23.1966 96.1331 22.729C95.6814 24.212 95.0738 25.1753 93.0272 24.9714L93.0274 24.9716C93.0513 24.9995 93.0752 25.0275 93.0952 25.0554C93.4789 25.2472 93.9306 25.4431 94.4543 25.643C97.4962 26.8022 100.218 25.2632 100.698 24.9514C100.733 24.9284 100.777 24.8999 100.83 24.8662C101.352 24.531 102.68 23.6793 103.272 22.5571C103.02 22.597 102.757 22.613 102.493 22.597C102.344 22.591 102.198 22.5781 102.112 22.5704C102.084 22.5679 102.063 22.566 102.049 22.5651C101.741 22.5571 100.142 22.3052 101.182 19.8909L101.195 19.8598C101.401 19.3846 102.092 17.7928 103.072 18.16C103.368 18.268 104.116 18.5438 104.36 19.719C104.404 19.9109 104.432 20.1067 104.451 20.3026C105.399 19.715 106.142 18.7796 106.318 17.7483C106.494 16.753 106.274 16.2453 105.99 16.2014C105.754 16.1607 105.391 16.9075 105.131 17.4411L105.131 17.4412C104.983 17.7456 104.869 17.9805 104.831 17.9602C104.741 17.9136 104.801 17.7256 104.872 17.5025C104.886 17.4576 104.901 17.4114 104.915 17.3646C105.563 15.1621 106.526 14.3266 106.85 14.3226C107.17 14.3147 107.601 15.334 107.605 16.689C107.613 18.8116 106.358 21.2699 104.404 22.2093C104.228 23.2006 103.844 24.068 103.372 24.6636C102.053 26.3345 99.235 28.0573 95.6335 27.2419C95.3257 27.1739 95.0339 27.094 94.7621 27.0061C95.0778 27.3498 95.3976 27.6736 95.7134 27.9894C95.8373 28.0174 96.0692 28.0653 96.5089 28.1373C98.0318 28.3971 101.294 28.4691 104.631 27.2539L104.619 27.2579ZM105.815 7.73112L105.651 7.89418C105.403 8.14125 105.027 8.5165 104.875 8.67448C104.839 8.71045 104.783 8.71045 104.747 8.67448C104.666 8.59472 104.527 8.45597 104.377 8.30628C104.158 8.08835 103.917 7.84723 103.796 7.73112C103.772 7.69114 103.772 7.63918 103.796 7.59921C103.92 7.4722 104.203 7.19226 104.438 6.95881L104.439 6.95822C104.566 6.83187 104.68 6.7192 104.747 6.65185C104.783 6.61587 104.839 6.61587 104.875 6.65584C104.937 6.71813 105.038 6.81705 105.151 6.92924L105.152 6.93037C105.389 7.16361 105.682 7.45374 105.815 7.59121C105.851 7.63518 105.851 7.69514 105.815 7.73112ZM100.126 19.4272C99.9266 19.6231 99.3749 20.1707 99.1831 20.3706C99.1471 20.4105 99.0911 20.4105 99.0551 20.3706C98.8553 20.1747 98.3037 19.6271 98.1038 19.4272C98.0718 19.3872 98.0718 19.3313 98.1038 19.2953C98.2917 19.0994 98.8593 18.5398 99.0551 18.3479C99.0911 18.3159 99.1471 18.3159 99.1831 18.3559C99.3789 18.5478 99.9266 19.0874 100.126 19.2873C100.158 19.3273 100.158 19.3912 100.126 19.4272ZM105.663 22.9168C105.79 22.7844 106.092 22.4856 106.334 22.2466C106.45 22.1322 106.552 22.0316 106.614 21.9695C106.654 21.9335 106.71 21.9335 106.746 21.9775L106.791 22.0219L106.793 22.0231C107.018 22.2439 107.507 22.7231 107.689 22.9088C107.725 22.9488 107.725 23.0128 107.689 23.0447C107.493 23.2446 106.946 23.7922 106.746 23.9881C106.71 24.0281 106.654 24.0281 106.614 23.9881C106.514 23.8899 106.326 23.7034 106.138 23.5165C105.952 23.3306 105.764 23.1444 105.663 23.0447C105.635 23.0088 105.635 22.9528 105.663 22.9168ZM98.1997 11.8563C98.7629 12.1507 98.8652 12.7997 98.9763 13.504L98.9763 13.5041C99.0221 13.7945 99.0694 14.0944 99.1511 14.3826C99.4269 15.3699 100.246 15.4499 100.246 15.4499C100.246 15.4499 101.913 12.2361 100.49 9.63383C99.0631 7.03159 96.7287 7.93498 96.1291 8.21879C95.3337 8.59853 92.2957 10.5532 90.7688 14.6744C89.2618 18.7516 91.4363 20.1507 92.7794 20.3785C94.1225 20.6144 96.1851 19.2513 96.253 18.5558C96.289 18.188 96.0172 17.9562 95.6135 17.8643C95.5163 17.8433 95.3807 17.8405 95.2209 17.8372C94.7102 17.8267 93.9538 17.811 93.427 17.1807C92.5715 16.1614 94.0425 13.9109 94.858 13.1115C95.7134 12.284 96.9646 11.2128 98.1957 11.8523L98.1997 11.8563ZM102.769 19.1234C102.209 19.0035 101.529 20.7543 102.233 20.9102C102.313 20.9262 102.413 20.9382 102.533 20.9302C102.873 20.9102 103.22 20.8382 103.556 20.7223C103.5 19.691 103.22 19.2233 102.769 19.1234ZM105.103 28.8048C103.352 29.4484 100.51 29.9641 97.9199 29.2805C97.3523 29.1326 96.9406 28.9687 96.6208 28.8368C99.6547 31.507 102.601 32.6542 104.463 31.6269C106.862 30.3038 109.004 28.0134 110.563 25.2433C109.024 27.042 106.886 28.1493 105.103 28.8048ZM105.851 11.5205C105.335 10.9769 103.716 11.7524 102.665 12.9436C101.749 13.9829 101.178 15.5019 101.178 15.5019C101.406 15.4739 103.032 14.6864 104.463 13.5632C105.023 13.1235 106.366 12.0602 105.851 11.5205ZM49.5948 7.0957C49.7547 7.0957 49.9185 7.11569 50.0824 7.15966L50.2024 6.48412C50.1064 6.46013 49.9905 6.43615 49.8706 6.41616C49.7507 6.39618 49.6347 6.38818 49.5268 6.38818C49.1231 6.38818 48.8193 6.48412 48.6194 6.68398C48.4236 6.88385 48.3236 7.11569 48.3236 7.37551C48.3236 7.53141 48.3556 7.66732 48.4156 7.78324C48.4795 7.89916 48.5475 8.00709 48.6194 8.10702H48.0118V8.82653H50.2983V8.10702H49.8786C49.6188 8.10702 49.4229 8.05106 49.303 7.93114C49.179 7.81921 49.1191 7.6913 49.1191 7.55539C49.1191 7.4035 49.1631 7.28757 49.255 7.21163C49.3469 7.13168 49.4589 7.0957 49.5948 7.0957ZM81.637 17.5486C81.4331 17.8124 81.1213 17.9403 80.6976 17.9403C80.2419 17.9403 79.9222 17.8084 79.7263 17.5406C79.5344 17.2728 79.4345 16.961 79.4345 16.6012C79.4345 16.3694 79.4665 16.1535 79.5384 15.9657C79.6064 15.7778 79.6943 15.6139 79.8062 15.478C79.9222 15.3421 80.0501 15.2382 80.21 15.1662C80.3619 15.0943 80.5218 15.0583 80.6976 15.0583C80.8575 15.0583 81.0134 15.0943 81.1613 15.1662C81.3092 15.2382 81.4411 15.3421 81.5531 15.478C81.665 15.6139 81.7609 15.7738 81.8329 15.9657C81.9048 16.1575 81.9408 16.3694 81.9408 16.6012C81.9408 16.973 81.8409 17.2888 81.633 17.5486H81.637ZM68.8297 15.9177C69.0815 15.6619 69.3693 15.454 69.6971 15.3061C70.0209 15.1582 70.3606 15.0823 70.7124 15.0823C71.316 15.0823 71.7557 15.2621 72.0275 15.6139C72.2953 15.9657 72.4312 16.4573 72.4312 17.0849V17.8644H67.8823C67.9383 17.5166 68.0662 17.0889 68.2061 16.8051C68.37 16.4693 68.5778 16.1735 68.8297 15.9177ZM83.2399 15.43C83.132 15.0503 82.9641 14.7265 82.7442 14.4587C82.5244 14.1869 82.2406 13.975 81.9048 13.8231C81.565 13.6712 81.1733 13.5953 80.7176 13.5953C80.3139 13.5953 79.9422 13.6672 79.6024 13.8191C79.2586 13.967 78.9668 14.1749 78.711 14.4387C78.4632 14.7025 78.2633 15.0183 78.1234 15.3901C77.9835 15.7578 77.9155 16.1575 77.9155 16.5892C77.9155 17.0449 78.0195 17.5006 78.1634 17.8604H73.9622C73.9622 17.644 73.9609 17.4548 73.9598 17.2936V17.2923L73.9598 17.2895V17.2887V17.2881C73.9589 17.1688 73.9582 17.065 73.9582 16.977C73.9582 16.4893 73.8942 16.0376 73.7583 15.6219C73.6224 15.2062 73.4266 14.8504 73.1707 14.5426C72.9149 14.2428 72.5951 14.007 72.2074 13.8351C71.8237 13.6632 71.3839 13.5793 70.8883 13.5793C70.2607 13.5793 69.6771 13.7312 69.1575 14.039C68.6338 14.3468 68.2101 14.7185 67.8823 15.1622V9.73389H66.3673V17.8564H60.5713V9.73389H59.0283V19.4273H80.6457H80.7176C81.2053 19.4273 81.621 19.3514 81.9568 19.1955C82.2966 19.0436 82.5724 18.8397 82.7882 18.5799C83.0041 18.3241 83.16 18.0323 83.2599 17.6965C83.3518 17.3647 83.3998 17.021 83.3998 16.6692C83.3998 16.2175 83.3438 15.8018 83.2359 15.426L83.2399 15.43ZM50.0423 9.73779H48.5114V19.4312H50.0423V9.73779ZM27.5413 17.8602H32.0343V17.0887C32.0343 16.709 31.9943 16.3932 31.9144 16.1334C31.8344 15.8775 31.7185 15.6737 31.5706 15.5178C31.4187 15.3619 31.2388 15.254 31.027 15.186C30.8151 15.1181 30.5833 15.0861 30.3314 15.0861C30.0317 15.0861 29.7319 15.15 29.4241 15.2819C29.1163 15.4139 28.8325 15.5977 28.5726 15.8376C28.3088 16.0774 28.085 16.3652 27.9011 16.709C27.7172 17.0527 27.5973 17.4365 27.5413 17.8602ZM32.8018 14.5544C33.0656 14.8542 33.2655 15.214 33.3934 15.6297H33.3894C33.5213 16.0454 33.5852 16.4971 33.5852 16.9848V19.4351H19.6987C19.3029 19.4351 18.9871 19.3392 18.7473 19.1513C18.5075 18.9595 18.3236 18.7516 18.1997 18.5277C18.0438 18.7876 17.8279 19.0074 17.5521 19.1753C17.2763 19.3472 16.9485 19.4351 16.5728 19.4351H12.9152V16.9688C12.9152 16.657 12.8873 16.4132 12.8273 16.2293C12.7673 16.0454 12.6794 15.9015 12.5555 15.8016C12.3197 15.6097 11.9999 15.6057 11.9999 15.6057H9.78137V19.4391H3.03794C0.459689 19.4391 0 18.0241 0 16.9768V14.0388H1.59492V16.8609C1.59492 17.6004 2.30644 17.6963 2.71016 17.6963H8.23442V14.0468H11.6921C12.6514 14.0468 13.355 14.2746 13.8066 14.7383C14.2583 15.194 14.4822 15.8895 14.4822 16.8209V17.8642H16.5048C16.7007 17.8642 16.8366 17.8002 16.9045 17.6763C16.9725 17.5484 17.0045 17.3765 17.0045 17.1607V14.0468H18.5474V16.617C18.5474 16.9808 18.6274 17.2766 18.8033 17.5124C18.9751 17.7483 19.2869 17.8642 19.7386 17.8642H25.9504V9.7417H27.5094V15.17C27.8891 14.6544 28.3448 14.2626 28.8764 13.9908C29.4121 13.723 29.9517 13.5871 30.5033 13.5871C31.007 13.5871 31.4507 13.671 31.8344 13.8429C32.2182 14.0148 32.542 14.2506 32.8018 14.5544ZM30.4993 12.4917C30.7312 12.4917 30.9271 12.4158 31.083 12.2639C31.2428 12.108 31.3188 11.9241 31.3188 11.7083C31.3188 11.4924 31.2428 11.3085 31.083 11.1527C30.9271 11.0008 30.7312 10.9248 30.4993 10.9248C30.2675 10.9248 30.0876 11.0008 29.9277 11.1527C29.7718 11.3045 29.6919 11.4924 29.6919 11.7083C29.6919 11.9241 29.7718 12.108 29.9277 12.2639C30.0876 12.4198 30.2755 12.4917 30.4993 12.4917ZM4.46523 20.4268C4.22939 20.4268 4.03752 20.4987 3.88162 20.6506C3.72973 20.8025 3.64978 20.9864 3.64978 21.2062C3.64978 21.4261 3.72573 21.6219 3.88162 21.7698C4.03352 21.9217 4.22939 21.9937 4.46523 21.9937C4.70107 21.9937 4.89294 21.9177 5.04883 21.7698C5.20473 21.6219 5.27668 21.4301 5.27668 21.2062C5.27668 20.9824 5.20073 20.8025 5.04883 20.6506C4.89294 20.4987 4.70107 20.4268 4.46523 20.4268ZM7.01137 20.4268C6.77553 20.4268 6.58366 20.4987 6.42777 20.6506C6.27587 20.8025 6.19592 20.9864 6.19592 21.2062C6.19592 21.4261 6.27587 21.6219 6.42777 21.7698C6.58366 21.9217 6.77553 21.9937 7.01137 21.9937C7.24721 21.9937 7.44308 21.9177 7.59497 21.7698C7.75087 21.6219 7.82682 21.4301 7.82682 21.2062C7.82682 20.9824 7.75087 20.8025 7.59497 20.6506C7.44308 20.4987 7.24721 20.4268 7.01137 20.4268ZM17.2485 20.6545C17.4044 20.5066 17.6003 20.4307 17.8321 20.4307C18.056 20.4307 18.2439 20.5066 18.4038 20.6545C18.5596 20.8064 18.6396 20.9863 18.6396 21.2101C18.6396 21.434 18.5596 21.6219 18.4038 21.7738C18.2439 21.9257 18.064 21.9976 17.8321 21.9976C17.6003 21.9976 17.4044 21.9257 17.2485 21.7738C17.0886 21.6259 17.0127 21.43 17.0127 21.2101C17.0127 20.9903 17.0926 20.8064 17.2485 20.6545ZM40.7846 19.4314C40.6967 19.955 40.6527 20.1109 40.4729 20.4947C40.297 20.8744 40.0491 21.1742 39.7413 21.406C39.4336 21.6419 38.75 22.1056 37.5628 22.0976C37.355 22.0976 36.7314 22.0816 36.2757 21.9896V20.4747C36.6434 20.5466 36.8433 20.5786 37.5268 20.5986C38.0865 20.6186 38.4742 20.4507 38.6781 20.3188C38.9259 20.1589 39.2577 19.7392 39.2657 19.4314H38.3583C37.7987 19.4314 37.327 19.3514 36.9432 19.1955C36.5595 19.0356 36.2477 18.8278 36.0079 18.572C35.768 18.3161 35.5962 18.0203 35.4882 17.6966C35.3803 17.3728 35.3243 17.041 35.3243 16.7052C35.3243 16.2815 35.3923 15.8778 35.5322 15.494C35.6721 15.1103 35.868 14.7745 36.1238 14.4827C36.3796 14.1949 36.6754 13.9671 37.0232 13.7992C37.371 13.6313 37.7587 13.5474 38.1784 13.5474C38.5981 13.5474 38.9459 13.6153 39.2697 13.7432C39.5895 13.8751 39.8613 14.059 40.0851 14.2949C40.313 14.5387 40.4848 14.8185 40.6008 15.1503C40.7167 15.4781 40.7766 15.8418 40.7766 16.2375V17.8484H43.5748C43.6126 17.8484 43.6474 17.8509 43.6792 17.856H45.1252V14.0386H46.6681V19.4269H43.0466V19.4309C43.0129 19.4309 42.9821 19.4284 42.9538 19.4234H40.7766L40.7846 19.4314ZM39.2537 17.8604V16.6573C39.2537 16.1456 39.1537 15.7459 38.9499 15.4741C38.746 15.1982 38.4622 15.0623 38.1025 15.0623C37.9386 15.0623 37.7827 15.0983 37.6348 15.1663C37.4869 15.2342 37.355 15.3262 37.235 15.4501C37.1191 15.57 37.0232 15.7179 36.9512 15.8898C36.8753 16.0617 36.8393 16.2575 36.8393 16.4734C36.8393 16.7252 36.8793 16.9411 36.9632 17.1169C37.0472 17.2928 37.1551 17.4367 37.287 17.5487C37.4229 17.6606 37.5788 17.7445 37.7547 17.7925C37.9306 17.8405 38.1105 17.8644 38.3023 17.8644H39.2497L39.2537 17.8604ZM45.1012 20.6501C44.9413 20.798 44.8654 20.9819 44.8654 21.2017C44.8654 21.4296 44.9413 21.6174 45.1012 21.7693C45.2571 21.9172 45.461 21.9932 45.6848 21.9932C45.9086 21.9932 46.0965 21.9212 46.2564 21.7693C46.4083 21.6174 46.4883 21.4176 46.4883 21.2017C46.4883 20.9859 46.4123 20.802 46.2564 20.6501C46.1005 20.5022 45.9166 20.4262 45.6848 20.4262C45.453 20.4262 45.2571 20.5022 45.1012 20.6501ZM57.0217 20.2908C57.1296 19.9391 57.1856 19.5593 57.1856 19.1516V19.1476V14.0391H55.6426V19.0277C55.6426 19.5154 55.5747 19.8871 55.4388 20.1389C55.3029 20.3908 55.035 20.6026 54.6393 20.5946C54.1157 20.5826 53.4801 20.4547 53.4801 20.4547V21.9137C53.62 21.9537 54.0197 22.0177 54.1636 22.0336C54.3115 22.0416 54.4674 22.0496 54.6393 22.0496C55.055 22.0496 55.4188 21.9777 55.7346 21.8258C56.0544 21.6779 56.3182 21.474 56.538 21.2102C56.7539 20.9504 56.9138 20.6466 57.0217 20.2908ZM69.9286 28.4729C70.86 28.4729 71.4756 27.8093 71.4756 26.854C71.4756 25.8986 70.864 25.2351 69.9286 25.2351C68.9932 25.2351 68.3937 25.8866 68.3937 26.854C68.3937 27.8213 69.0052 28.4729 69.9286 28.4729ZM69.9286 23.876C71.5755 23.876 72.9066 25.1271 72.9066 26.854C72.9066 28.5808 71.5715 29.8359 69.9286 29.8359C68.2857 29.8359 66.9586 28.5808 66.9586 26.854C66.9586 25.1271 68.2857 23.876 69.9286 23.876ZM3.22581 26.4986L3.63354 27.6138H2.25048L2.6582 26.4986C2.78212 26.1708 2.93801 25.6552 2.93801 25.6552H2.946C2.94903 25.6552 2.97209 25.729 3.0063 25.8385L3.00631 25.8386L3.00632 25.8386C3.06252 26.0186 3.1488 26.2949 3.22581 26.4986ZM1.80678 28.817H4.07324L4.40102 29.7164H5.88401L3.59357 23.9883H2.29045L0 29.7164H1.479L1.80678 28.817ZM9.43369 27.9176C9.43369 28.2934 9.14588 28.5652 8.68619 28.5652H7.72684V27.2741H8.68619C9.1219 27.2741 9.43369 27.5179 9.43369 27.9176ZM9.19385 25.6831C9.19385 25.9949 8.92203 26.2228 8.55428 26.2228H7.72684V25.1435H8.55428C8.92203 25.1435 9.19385 25.3713 9.19385 25.6831ZM10.5729 25.5033C10.5729 24.6678 9.8614 23.9883 8.83809 23.9883L8.83409 23.9923H6.34778V29.7204H8.8181C10.2331 29.7204 10.8647 28.9449 10.8647 27.9856C10.8647 27.402 10.397 26.7824 9.8574 26.6345V26.6265C10.2052 26.5026 10.5729 26.0429 10.5729 25.5033ZM16.705 23.9883V27.1701C16.705 28.889 15.6897 29.8323 14.1787 29.8323C12.6677 29.8323 11.6484 28.889 11.6484 27.1701V23.9883H13.0235V27.1421C13.0235 28.1255 13.4232 28.5492 14.1787 28.5492C14.9342 28.5492 15.3339 28.1255 15.3339 27.1421V23.9883H16.705ZM23.9518 26.8783C23.9518 27.8577 23.2363 28.4333 22.4209 28.4333H21.2936V25.2754H22.4209C23.2403 25.2754 23.9518 25.899 23.9518 26.8783ZM25.3828 26.8783C25.3828 25.1595 24.0557 23.9883 22.4209 23.9883V23.9923H19.9146V29.7204H22.4209C24.0557 29.7204 25.3828 28.5972 25.3828 26.8783ZM31.1311 23.9883V29.7164H29.76V27.4939H27.6135V29.7164H26.2384V23.9883H27.6135V26.2068H29.76V23.9883H31.1311ZM34.8284 26.4986L35.2361 27.6138H33.853L34.2607 26.4986C34.3847 26.1708 34.5406 25.6552 34.5406 25.6552H34.5485C34.5516 25.6552 34.5745 25.7285 34.6085 25.8374L34.6086 25.8377L34.6087 25.838L34.6088 25.8385L34.6088 25.8386L34.6089 25.8386C34.6651 26.0186 34.7513 26.2949 34.8284 26.4986ZM33.4133 28.817H35.6758L36.0036 29.7164H37.4866L35.1961 23.9883H33.893L31.6025 29.7164H33.0855L33.4133 28.817ZM40.2923 28.5652C40.752 28.5652 41.0358 28.2934 41.0358 27.9176C41.0358 27.5179 40.724 27.2741 40.2923 27.2741H39.333V28.5652H40.2923ZM40.1604 26.2228C40.5282 26.2228 40.8 25.9949 40.8 25.6831C40.8 25.3713 40.5282 25.1435 40.1604 25.1435H39.333V26.2228H40.1604ZM40.4482 23.9883C41.4715 23.9883 42.1831 24.6678 42.1831 25.5033C42.1831 26.0429 41.8153 26.5026 41.4675 26.6265V26.6345C42.0072 26.7824 42.4749 27.402 42.4749 27.9856C42.4749 28.9449 41.8433 29.7204 40.4322 29.7204H37.9619V23.9923H40.4482V23.9883ZM43.3584 23.9883H44.7335V29.7124H43.3584V23.9883ZM51.0496 27.6138L50.6418 26.4986C50.5705 26.3098 50.4925 26.0588 50.4369 25.8798L50.4369 25.8797L50.4368 25.8794C50.3959 25.7478 50.3671 25.6552 50.362 25.6552H50.354C50.354 25.6552 50.1981 26.1708 50.0742 26.4986L49.6665 27.6138H51.0496ZM51.4893 28.817H49.2268L48.899 29.7164H47.416L49.7065 23.9883H51.0096L53.3 29.7164H51.817L51.4893 28.817ZM53.7715 23.9883H55.1466V29.7124H53.7715V23.9883ZM57.7969 26.6339H58.7483C59.24 26.6339 59.4358 26.2662 59.4358 25.9544C59.4358 25.6426 59.236 25.2748 58.7483 25.2748H57.7969V26.6339ZM59.5637 29.7198L58.5005 27.8531H57.7969V29.7198H56.4219V23.9917H58.5564C59.9955 23.9917 60.8669 24.7752 60.8669 25.9544C60.8669 26.7218 60.4991 27.2975 59.8356 27.6092L61.1027 29.7198H59.5677H59.5637ZM64.9958 25.9544C64.9958 26.3821 64.676 26.6339 64.1443 26.6339H63.3609V25.2748H64.1443C64.676 25.2748 64.9958 25.5267 64.9958 25.9544ZM66.4268 25.9544C66.4268 24.7272 65.5754 23.9917 64.1683 23.9917H61.9818V29.7198H63.3569V27.917H64.1683C65.5754 27.917 66.4268 27.1815 66.4268 25.9544ZM76.084 26.6339H75.1367V25.2748H76.084C76.5757 25.2748 76.7716 25.6426 76.7716 25.9544C76.7716 26.2662 76.5757 26.6339 76.084 26.6339ZM75.8402 27.8531L76.9035 29.7198H78.4344L77.1673 27.6092C77.8308 27.2975 78.1986 26.7218 78.1986 25.9544C78.1986 24.7752 77.3312 23.9917 75.8922 23.9917H73.7616V29.7198H75.1367V27.8531H75.8402ZM83.6033 23.9883V25.2754H81.8605V29.7164H80.4854V25.2754H78.7666V23.9883H83.6033Z" fill="#004986" style="fill:#004986;fill:color(display-p3 0.0000 0.2863 0.5255);fill-opacity:1;"/>
</svg>
